# xmcd
#
# Track frame offsets:
#	150
#	17938
#	35151
#	53543
#	68049
#	88151
#	104285
#	122295
#	141835
#	161416
#	183027
#	204316
#	225395
#	243937
#
# Disc length: 3516 seconds
#
# Revision: 0
# Processed by: cddbd v1.5.2PL0 Copyright (c) Steve Scherf et al.
# Submitted via: EasyCDDAExtractor 12.1.0.1
#
DISCID=ac0dba0e
DTITLE=Keith Sweat - Ridin' Solo
DYEAR=2010
DGENRE=R&B
TTITLE0=Famous
TTITLE1=Full Time Lover
TTITLE2=Test Drive (feat Joe)
TTITLE3=Ridin' Solo
TTITLE4=Genius Girl
TTITLE5=Do Wrong Tonight
TTITLE6=Hood Sex
TTITLE7=It's All About You
TTITLE8=I'm The One You Want
TTITLE9=Live In Person
TTITLE10=It's A Shame
TTITLE11=Tropical
TTITLE12=Dancin' With My Girl (Bonus Track)
TTITLE13=Reverse (Bonus Track)
EXTD=
EXTT0=
EXTT1=
EXTT2=
EXTT3=
EXTT4=
EXTT5=
EXTT6=
EXTT7=
EXTT8=
EXTT9=
EXTT10=
EXTT11=
EXTT12=
EXTT13=
PLAYORDER=
